<svg width="17" height="18" viewBox="0 0 17 18" fill="none" xmlns="http://www.w3.org/2000/svg">
<path d="M15.1111 0H1.88889C1.38792 0 0.907478 0.210714 0.553243 0.585786C0.199007 0.960859 0 1.46957 0 2V16C0 16.5304 0.199007 17.0391 0.553243 17.4142C0.907478 17.7893 1.38792 18 1.88889 18H15.1111C15.6121 18 16.0925 17.7893 16.4468 17.4142C16.801 17.0391 17 16.5304 17 16V2C17 1.46957 16.801 0.960859 16.4468 0.585786C16.0925 0.210714 15.6121 0 15.1111 0ZM15.1111 16H1.88889V2H15.1111V16ZM10.3322 7.06C10.9272 7.7 11.2578 8.54 11.2578 9.44C11.2578 10.34 10.9272 11.18 10.3322 11.81L8.245 14C7.63111 14.67 6.81889 15 6.00667 15C5.19444 15 4.38222 14.67 3.77778 14C2.52167 12.71 2.52167 10.58 3.77778 9.26L5.05278 7.9L5.04333 8.5C5.03389 9 5.10944 9.5 5.26056 9.94L5.30778 10.09L4.93 10.5C4.78688 10.6487 4.67318 10.8261 4.59557 11.0218C4.51796 11.2175 4.47798 11.4277 4.47798 11.64C4.47798 11.8523 4.51796 12.0625 4.59557 12.2582C4.67318 12.4539 4.78688 12.6313 4.93 12.78C5.50611 13.4 6.50722 13.4 7.08333 12.78L9.16111 10.59C9.44444 10.28 9.61444 9.87 9.61444 9.44C9.61444 9 9.44444 8.61 9.16111 8.3C9.08344 8.21904 9.02176 8.12253 8.97965 8.01609C8.93755 7.90965 8.91586 7.7954 8.91586 7.68C8.91586 7.5646 8.93755 7.45035 8.97965 7.34391C9.02176 7.23747 9.08344 7.14096 9.16111 7.06C9.47278 6.73 10.0206 6.74 10.3322 7.06ZM14.1667 6.36C14.1667 7.26 13.8361 8.1 13.2222 8.74L11.9567 10.1V9.5C11.9661 9 11.8906 8.5 11.7394 8.06L11.6922 7.92L12.07 7.5C12.2131 7.35133 12.3268 7.17394 12.4044 6.9782C12.482 6.78245 12.522 6.57229 12.522 6.36C12.522 6.14771 12.482 5.93755 12.4044 5.74181C12.3268 5.54606 12.2131 5.36867 12.07 5.22C11.4939 4.6 10.4833 4.61 9.91667 5.22L7.83889 7.42C7.55556 7.72 7.38556 8.13 7.38556 8.56C7.38556 9 7.55556 9.39 7.83889 9.7C7.99944 9.86 8.08444 10.08 8.08444 10.32C8.08444 10.56 7.99944 10.78 7.83889 10.94C7.76199 11.0209 7.67056 11.0848 7.56999 11.1277C7.46942 11.1706 7.36176 11.1918 7.25333 11.19C7.04556 11.19 6.82833 11.11 6.66778 10.94C6.07363 10.3097 5.73994 9.45553 5.73994 8.565C5.73994 7.67446 6.07363 6.82031 6.66778 6.19L8.755 4C9.04615 3.68536 9.39368 3.4354 9.77721 3.26476C10.1607 3.09411 10.5726 3.00622 10.9886 3.00622C11.4046 3.00622 11.8165 3.09411 12.2 3.26476C12.5835 3.4354 12.9311 3.68536 13.2222 4C13.8361 4.62 14.1667 5.46 14.1667 6.36Z" fill="black"/>
</svg>
